PathFileType	3	(X/Y/Z)	E:\ViconData\BIOM9541 2025\Week 7\Wed1100\Hanif deep squat 5 Squat 01.trc
DataRate	CameraRate	NumFrames	NumMarkers	Units	OrigDataRate	OrigDataStartFrame	OrigNumFrames
200.0	200.0	8	19	mm	200.0	1062	1698	
Frame#	Time	C7			CLAV			RBAK			LASI			RASI			LPSI			RPSI			LTHI			LKNE			LTIB			LANK			LHEE			LTOE			RTHI			RKNE			RTIB			RANK			RHEE			RTOE			
		X1	Y1	Z1	X2	Y2	Z2	X3	Y3	Z3	X4	Y4	Z4	X5	Y5	Z5	X6	Y6	Z6	X7	Y7	Z7	X8	Y8	Z8	X9	Y9	Z9	X10	Y10	Z10	X11	Y11	Z11	X12	Y12	Z12	X13	Y13	Z13	X14	Y14	Z14	X15	Y15	Z15	X16	Y16	Z16	X17	Y17	Z17	X18	Y18	Z18	X19	Y19	Z19	
1062	5.305	258.51886	1321.72	-1217.6602	112.15148	1246.3376	-1205.3707	281.04556	1234.1936	-1358.9396	164.88754	878.76953	-1077.8375	164.2195	886.952	-1340.6061	330.1756	948.7316	-1164.1067	331.1043	945.0835	-1237.4336	218.51173	561.29749	-993.35114	230.92033	421.45941	-995.94	274.32339	221.08583	-968.41193	300.41345	65.476601	-979.76782	319.77264	50.578026	-1039.9216	157.72832	38.193798	-945.79126	230.83942	734.08777	-1407.1056	257.60864	422.04575	-1417.9982	276.45456	335.81046	-1438.1097	301.70596	75.413559	-1425.788	316.43994	51.224922	-1359.0376	162.7052	40.843571	-1469.657	
1063	5.31	258.4201	1321.7649	-1217.6112	112.0597	1246.3643	-1205.3604	281.03186	1234.2725	-1358.9017	164.79581	878.79755	-1077.818	164.1278	887.0187	-1340.5841	330.1433	948.6539	-1164.2889	331.6117	944.9055	-1238.1427	218.36603	561.35785	-993.30078	230.77805	421.50266	-995.92444	274.25439	221.18279	-968.38147	300.4379	65.525742	-979.80933	319.69513	50.547714	-1039.9321	157.70576	38.179577	-945.78168	230.78136	734.09998	-1407.0939	258.04535	421.9729	-1417.7615	276.80246	335.78397	-1437.9575	301.74646	75.34491	-1425.7496	316.78195	50.89534	-1359.4854	162.7142	40.759502	-1469.6575	
1064	5.315	258.31198	1321.8414	-1217.5629	111.97421	1246.3871	-1205.3367	280.92264	1234.3116	-1358.8149	164.71344	878.82922	-1077.8004	164.0196	887.1152	-1340.5299	330.0608	948.621	-1164.3168	331.549	944.9751	-1238.1307	218.19817	561.34698	-993.27228	230.6638	421.58136	-995.87787	274.22464	221.21941	-968.39703	300.43094	65.581512	-979.81213	319.65958	50.585827	-1039.934	157.69147	38.180939	-945.75684	230.70158	734.21234	-1407.1473	258.41357	422.0321	-1417.5493	277.15909	335.76294	-1437.7864	301.78436	75.31601	-1425.6881	317.00653	51.403656	-1358.814	162.71922	40.756981	-1469.6559	
1065	5.32	258.21313	1321.9297	-1217.532	111.81065	1246.4645	-1205.3854	280.82828	1234.3315	-1358.7728	164.59061	878.8183	-1077.7614	163.9362	887.1982	-1340.5293	329.944	948.6411	-1164.0435	331.379	944.8792	-1238.0327	218.07135	561.34943	-993.2373	230.55296	421.57553	-995.85077	274.20001	221.28654	-968.35608	300.37698	65.646965	-979.77142	319.71619	50.7337	-1039.9719	157.68047	38.197117	-945.73669	230.68877	734.29028	-1407.1672	258.78192	422.13574	-1417.3523	277.48911	335.86392	-1437.6241	301.78989	75.398827	-1425.6235	316.81	50.768009	-1359.5371	162.72124	40.83049	-1469.6815	
1066	5.325	258.10785	1321.9716	-1217.5194	111.76163	1246.4358	-1205.3221	280.71179	1234.3588	-1358.7084	164.50597	878.79736	-1077.7598	163.8651	887.3062	-1340.51	329.8619	948.6632	-1163.9021	331.2762	944.889	-1237.972	217.96838	561.33398	-993.23566	230.49564	421.60767	-995.77795	274.21103	221.28055	-968.37787	300.34482	65.699677	-979.73279	319.70874	50.796597	-1039.9532	157.68683	38.180958	-945.72406	230.95892	734.341	-1406.829	259.15408	422.21368	-1417.1476	277.78372	335.9581	-1437.4822	301.81451	75.446831	-1425.5835	316.99292	51.272594	-1358.7421	162.70593	40.874538	-1469.6836	
1067	5.33	258.04999	1321.9957	-1217.5499	111.76766	1246.3993	-1205.246	280.61539	1234.3737	-1358.6597	164.2563	878.81409	-1077.4641	163.8335	887.3442	-1340.4967	329.78	948.6634	-1163.9766	331.2158	944.9735	-1237.9467	217.91904	561.42126	-993.26367	230.4558	421.64502	-995.75763	274.17819	221.3047	-968.37787	300.32306	65.745033	-979.72998	319.69827	50.826859	-1039.9807	157.69669	38.174221	-945.75232	230.76859	734.26721	-1407.0568	259.54904	422.23172	-1416.9686	278.07089	335.922	-1437.3414	301.86356	75.396011	-1425.5472	316.86502	50.501255	-1359.6218	162.73599	40.847023	-1469.6796	
1068	5.335	257.96716	1321.9755	-1217.5529	111.70689	1246.3785	-1205.2142	280.55585	1234.3876	-1358.6185	164.3378	878.92419	-1077.7222	163.8032	887.363	-1340.4742	329.7092	948.6791	-1164.0331	331.1838	945.0669	-1237.9437	217.87282	561.5329	-993.26453	230.4549	421.73993	-995.7428	274.16901	221.38994	-968.35724	300.34363	65.780815	-979.77185	319.74936	50.845764	-1040.0079	157.72713	38.155346	-945.79999	230.80429	734.27948	-1407.1149	259.89722	422.17123	-1416.775	278.34433	335.88986	-1437.1732	301.91891	75.322632	-1425.5035	316.9386	51.264744	-1358.6014	162.77985	40.772427	-1469.6533	
1069	5.34	257.89627	1322.0134	-1217.5564	111.67288	1246.3844	-1205.1799	280.47134	1234.4435	-1358.6074	164.27252	878.98682	-1077.7041	163.7872	887.3865	-1340.4652	329.6483	948.7518	-1164.074	331.1716	945.1657	-1237.9786	217.85541	561.59302	-993.29901	230.4632	421.78726	-995.72858	274.16443	221.43497	-968.35809	300.35617	65.81781	-979.79047	319.73929	50.878944	-1040.0369	157.75954	38.153568	-945.80579	231.13454	734.28595	-1406.7906	260.19858	422.23126	-1416.6348	278.58264	335.87494	-1437.0111	301.95413	75.310982	-1425.452	316.94955	51.231342	-1358.5276	162.80275	40.793587	-1469.6537	
